<?xml version="1.0" encoding="utf-8"?>
<!-- Generator: Adobe Illustrator 16.0.0, SVG Export Plug-In . SVG Version: 6.00 Build 0)  -->
<!DOCTYPE svg PUBLIC "-//W3C//DTD SVG 1.1//EN" "http://www.w3.org/Graphics/SVG/1.1/DTD/svg11.dtd">
<svg version="1.1" xmlns="http://www.w3.org/2000/svg" xmlns:xlink="http://www.w3.org/1999/xlink" x="0px" y="0px" width="400px"
	 height="400px" viewBox="0 0 400 400" enable-background="new 0 0 400 400" xml:space="preserve">
<g id="test-1">
	<circle id="circle" fill="#F15E5E" r="22.742">
		<animateMotion  fill="remove" repeatCount="indefinite" accumulate="none" dur="5s" additive="replace" restart="always" calcMode="paced">
		<mpath  xlink:href="#mpath"></mpath>
	</animateMotion>
	</circle>
	<path id="mpath" fill="none" stroke="#020202" stroke-miterlimit="10" d="M43.645,111.258c0.591-2.102,2.033-2.816,3.565-4.471
		c4.234-4.573,7.771-9.612,12.239-14.01c13.203-12.997,26.62-22.564,44.697-27.188c15.362-3.93,31.662-5.358,47.489-4.738
		c10.476,0.411,19.12,4.879,28.216,9.798c4.28,2.314,9.861,3.524,9.292,8.778c-0.451,4.164-3.362,7.617-5.673,10.948
		c-3.613,5.208-7.239,10.073-9.391,16.122c-2.316,6.513-4.12,15.376-1.055,21.958c5.242,11.257,21.193,15.87,31.765,19.082
		c7.148,2.131,14.391,3.883,21.721,5.255c4.152,0.685,8.328,1.163,12.525,1.434c3.686,1.115,6.047,3.949,8.818,6.621
		c8.573,8.26,21.301,16.018,22.252,28.812c1.168,15.729-11.328,25.138-24.463,31.181c-10.527,4.844-21.799,5.422-33.141,6.594
		c-6.132,0.633-13.394,2.571-19.601,1.972c-3.712-0.359-4.075-1.767-4.346-5.554c-0.608-8.5,7.362-11.934,14.185-14.539
		c22.326-8.531,49.994-8.469,67.63,9.015c5.008,4.965,8.204,9.258,8.112,16.296c-0.094,7.314-2.604,14.305-3.899,21.49
		c-3.496,19.396-7.19,37.777-21.56,52.457c-3.266,3.334-7.188,6.266-10.67,9.142"/>
</g>
<g id="test-2">
	<rect x="267.5" y="60.712" fill="#3B66F2" width="41" height="41"/>
</g>
</svg>
